ffmpeg started on 2025-06-06 at 15:45:09
Report written to "D:\Convert\FFMetrics\reports\psnr_report-6.txt"
Log level: 32
Command line:
ffmpeg -hide_banner -nostdin -i "G:\\\xc0\xed\xe8\xec\xe5\\\xce\xed\xe3\xee\xe8\xed\xe3\xe8\\!_36_\xce\xf1\xe5\xed\xfc_2024\\DreamCast\\\xcf\xe5\xf0\xe5\xf0\xee\xe6\xe4\xe5\xed\xe8\xe5 \xe2 \xe0\xf0\xe8\xf1\xf2\xee\xea\xf0\xe0\xf2\xe0 \xf1\xee \xf1\xef\xee\xf1\xee\xe1\xed\xee\xf1\xf2\xfc\xfe \xe0\xed\xe0\xeb\xe8\xe7\xe0\\\xd2\xc2-1\\[DC] Tensei Kizoku - Kantei Skill de Nariagaru - 04_Telegram_HEVC.mkv" -i "G:\\\xc0\xed\xe8\xec\xe5\\\xce\xed\xe3\xee\xe8\xed\xe3\xe8\\!_36_\xce\xf1\xe5\xed\xfc_2024\\DreamCast\\\xcf\xe5\xf0\xe5\xf0\xee\xe6\xe4\xe5\xed\xe8\xe5 \xe2 \xe0\xf0\xe8\xf1\xf2\xee\xea\xf0\xe0\xf2\xe0 \xf1\xee \xf1\xef\xee\xf1\xee\xe1\xed\xee\xf1\xf2\xfc\xfe \xe0\xed\xe0\xeb\xe8\xe7\xe0\\\xd2\xc2-1\\[DC] Tensei Kizoku - Kantei Skill de Nariagaru - 04_Telegram.mp4" -lavfi "[0:v]settb=AVTB,setpts=PTS-STARTPTS,format=pix_fmts=yuv420p10,fps=24000/1001,scale=1920:1080:flags=bicubic[main];[1:v]settb=AVTB,setpts=PTS-STARTPTS,format=pix_fmts=yuv420p,fps=24000/1001,scale=1920:1080:flags=bicubic[ref];[main][ref]psnr=eof_action=endall:stats_file='D\\:/Convert/FFMetrics/logs/psnr_logfile-6.txt'" -f null -
Input #0, matroska,webm, from 'G:\Аниме\Онгоинги\!_36_Осень_2024\DreamCast\Перерождение в аристократа со способностью анализа\ТВ-1\[DC] Tensei Kizoku - Kantei Skill de Nariagaru - 04_Telegram_HEVC.mkv':
  Metadata:
    COMPATIBLE_BRANDS: isomiso2avc1mp41
    MAJOR_BRAND     : isom
    MINOR_VERSION   : 512
    ENCODER         : Lavf61.7.100
  Duration: 00:23:48.31, start: -0.021000, bitrate: 1028 kb/s
  Stream #0:0: Video: hevc (Main 10), yuv420p10le(tv, bt709, progressive), 1920x1080 [SAR 1:1 DAR 16:9], 23.98 fps, 23.98 tbr, 1k tbn (default)
      Metadata:
        HANDLER_NAME    : VideoHandler
        VENDOR_ID       : [0][0][0][0]
        ENCODER         : Lavc61.19.100 libx265
        BPS             : 831870
        DURATION        : 00:23:46.549708333
        NUMBER_OF_FRAMES: 34203
        NUMBER_OF_BYTES : 148338029
        _STATISTICS_WRITING_APP: mkvpropedit v66.0.0 ('Josie') 64-bit
        _STATISTICS_WRITING_DATE_UTC: 2025-06-02 07:18:03
        _STATISTICS_TAGS: BPS DURATION NUMBER_OF_FRAMES NUMBER_OF_BYTES
  Stream #0:1: Audio: aac (LC), 48000 Hz, stereo, fltp (default)
      Metadata:
        HANDLER_NAME    : SoundHandler
        VENDOR_ID       : [0][0][0][0]
        ENCODER         : Lavc61.19.100 aac
        BPS             : 193503
        DURATION        : 00:23:48.309000000
        NUMBER_OF_FRAMES: 66953
        NUMBER_OF_BYTES : 34547782
        _STATISTICS_WRITING_APP: mkvpropedit v66.0.0 ('Josie') 64-bit
        _STATISTICS_WRITING_DATE_UTC: 2025-06-02 07:18:03
        _STATISTICS_TAGS: BPS DURATION NUMBER_OF_FRAMES NUMBER_OF_BYTES
Input #1, mov,mp4,m4a,3gp,3g2,mj2, from 'G:\Аниме\Онгоинги\!_36_Осень_2024\DreamCast\Перерождение в аристократа со способностью анализа\ТВ-1\[DC] Tensei Kizoku - Kantei Skill de Nariagaru - 04_Telegram.mp4':
  Metadata:
    major_brand     : isom
    minor_version   : 512
    compatible_brands: isomiso2avc1mp41
    encoder         : Lavf60.16.100
  Duration: 00:23:48.26, start: 0.000000, bitrate: 3632 kb/s
  Stream #1:0[0x1](und): Video: h264 (High) (avc1 / 0x31637661), yuv420p(tv, bt709, progressive), 1920x1080 [SAR 1:1 DAR 16:9], 3489 kb/s, 23.98 fps, 23.98 tbr, 24k tbn (default)
      Metadata:
        handler_name    : VideoHandler
        vendor_id       : [0][0][0][0]
        encoder         : Lavc60.31.102 h264_qsv
  Stream #1:1[0x2](und): Audio: aac (HE-AACv2) (mp4a / 0x6134706D), 48000 Hz, stereo, fltp, 144 kb/s (default)
      Metadata:
        handler_name    : SoundHandler
        vendor_id       : [0][0][0][0]
Stream mapping:
  Stream #0:0 (hevc) -> settb:default
  Stream #1:0 (h264) -> settb:default
  psnr:default -> Stream #0:0 (wrapped_avframe)
  Stream #0:1 -> #0:1 (aac (native) -> pcm_s16le (native))
Output #0, null, to 'pipe:':
  Metadata:
    COMPATIBLE_BRANDS: isomiso2avc1mp41
    MAJOR_BRAND     : isom
    MINOR_VERSION   : 512
    encoder         : Lavf61.7.100
  Stream #0:0: Video: wrapped_avframe, yuv420p10le(tv, bt709, progressive), 1920x1080 [SAR 1:1 DAR 16:9], q=2-31, 200 kb/s, 23.98 fps, 23.98 tbn
      Metadata:
        encoder         : Lavc61.19.100 wrapped_avframe
  Stream #0:1: Audio: pcm_s16le, 48000 Hz, stereo, s16, 1536 kb/s (default)
      Metadata:
        HANDLER_NAME    : SoundHandler
        VENDOR_ID       : [0][0][0][0]
        _STATISTICS_TAGS: BPS DURATION NUMBER_OF_FRAMES NUMBER_OF_BYTES
        BPS             : 193503
        DURATION        : 00:23:48.309000000
        NUMBER_OF_FRAMES: 66953
        NUMBER_OF_BYTES : 34547782
        _STATISTICS_WRITING_APP: mkvpropedit v66.0.0 ('Josie') 64-bit
        _STATISTICS_WRITING_DATE_UTC: 2025-06-02 07:18:03
        encoder         : Lavc61.19.100 pcm_s16le
frame=  179 fps=0.0 q=-0.0 size=N/A time=00:00:07.46 bitrate=N/A speed=14.4x    frame=  416 fps=400 q=-0.0 size=N/A time=00:00:17.35 bitrate=N/A speed=16.7x    frame=  625 fps=404 q=-0.0 size=N/A time=00:00:26.06 bitrate=N/A speed=16.9x    frame=  893 fps=431 q=-0.0 size=N/A time=00:00:37.24 bitrate=N/A speed=  18x    frame= 1114 fps=432 q=-0.0 size=N/A time=00:00:46.46 bitrate=N/A speed=  18x    frame= 1356 fps=437 q=-0.0 size=N/A time=00:00:56.55 bitrate=N/A speed=18.2x    frame= 1592 fps=441 q=-0.0 size=N/A time=00:01:06.39 bitrate=N/A speed=18.4x    frame= 1857 fps=449 q=-0.0 size=N/A time=00:01:17.45 bitrate=N/A speed=18.7x    frame= 2112 fps=455 q=-0.0 size=N/A time=00:01:28.08 bitrate=N/A speed=  19x    frame= 2370 fps=459 q=-0.0 size=N/A time=00:01:38.84 bitrate=N/A speed=19.1x    frame= 2638 fps=465 q=-0.0 size=N/A time=00:01:50.02 bitrate=N/A speed=19.4x    frame= 2839 fps=458 q=-0.0 size=N/A time=00:01:58.40 bitrate=N/A speed=19.1x    frame= 3019 fps=450 q=-0.0 size=N/A time=00:02:05.91 bitrate=N/A speed=18.8x    frame= 3211 fps=444 q=-0.0 size=N/A time=00:02:13.92 bitrate=N/A speed=18.5x    frame= 3360 fps=434 q=-0.0 size=N/A time=00:02:20.14 bitrate=N/A speed=18.1x    frame= 3543 fps=429 q=-0.0 size=N/A time=00:02:27.77 bitrate=N/A speed=17.9x    frame= 3752 fps=428 q=-0.0 size=N/A time=00:02:36.48 bitrate=N/A speed=17.9x    frame= 3920 fps=422 q=-0.0 size=N/A time=00:02:43.49 bitrate=N/A speed=17.6x    frame= 4122 fps=421 q=-0.0 size=N/A time=00:02:51.92 bitrate=N/A speed=17.6x    frame= 4335 fps=420 q=-0.0 size=N/A time=00:03:00.80 bitrate=N/A speed=17.5x    frame= 4541 fps=419 q=-0.0 size=N/A time=00:03:09.39 bitrate=N/A speed=17.5x    frame= 4778 fps=421 q=-0.0 size=N/A time=00:03:19.28 bitrate=N/A speed=17.6x    frame= 5002 fps=422 q=-0.0 size=N/A time=00:03:28.62 bitrate=N/A speed=17.6x    frame= 5277 fps=426 q=-0.0 size=N/A time=00:03:40.09 bitrate=N/A speed=17.8x    frame= 5522 fps=429 q=-0.0 size=N/A time=00:03:50.31 bitrate=N/A speed=17.9x    frame= 5711 fps=426 q=-0.0 size=N/A time=00:03:58.19 bitrate=N/A speed=17.8x    frame= 5931 fps=426 q=-0.0 size=N/A time=00:04:07.37 bitrate=N/A speed=17.8x    frame= 6150 fps=426 q=-0.0 size=N/A time=00:04:16.50 bitrate=N/A speed=17.8x    frame= 6346 fps=424 q=-0.0 size=N/A time=00:04:24.68 bitrate=N/A speed=17.7x    frame= 6577 fps=425 q=-0.0 size=N/A time=00:04:34.31 bitrate=N/A speed=17.7x    frame= 6800 fps=425 q=-0.0 size=N/A time=00:04:43.61 bitrate=N/A speed=17.7x    frame= 7037 fps=427 q=-0.0 size=N/A time=00:04:53.50 bitrate=N/A speed=17.8x    frame= 7260 fps=427 q=-0.0 size=N/A time=00:05:02.84 bitrate=N/A speed=17.8x    frame= 7486 fps=427 q=-0.0 size=N/A time=00:05:12.22 bitrate=N/A speed=17.8x    frame= 7714 fps=427 q=-0.0 size=N/A time=00:05:21.73 bitrate=N/A speed=17.8x    frame= 7974 fps=429 q=-0.0 size=N/A time=00:05:32.58 bitrate=N/A speed=17.9x    frame= 8220 fps=430 q=-0.0 size=N/A time=00:05:42.84 bitrate=N/A speed=  18x    frame= 8457 fps=431 q=-0.0 size=N/A time=00:05:52.72 bitrate=N/A speed=  18x    frame= 8732 fps=434 q=-0.0 size=N/A time=00:06:04.19 bitrate=N/A speed=18.1x    frame= 9002 fps=436 q=-0.0 size=N/A time=00:06:15.45 bitrate=N/A speed=18.2x    frame= 9276 fps=438 q=-0.0 size=N/A time=00:06:26.88 bitrate=N/A speed=18.3x    frame= 9558 fps=441 q=-0.0 size=N/A time=00:06:38.64 bitrate=N/A speed=18.4x    frame= 9807 fps=442 q=-0.0 size=N/A time=00:06:49.03 bitrate=N/A speed=18.4x    frame=10069 fps=443 q=-0.0 size=N/A time=00:06:59.96 bitrate=N/A speed=18.5x    frame=10315 fps=444 q=-0.0 size=N/A time=00:07:10.22 bitrate=N/A speed=18.5x    frame=10548 fps=444 q=-0.0 size=N/A time=00:07:19.93 bitrate=N/A speed=18.5x    frame=10776 fps=444 q=-0.0 size=N/A time=00:07:29.44 bitrate=N/A speed=18.5x    frame=11057 fps=446 q=-0.0 size=N/A time=00:07:41.16 bitrate=N/A speed=18.6x    frame=11302 fps=447 q=-0.0 size=N/A time=00:07:51.38 bitrate=N/A speed=18.6x    frame=11566 fps=448 q=-0.0 size=N/A time=00:08:02.39 bitrate=N/A speed=18.7x    frame=11813 fps=449 q=-0.0 size=N/A time=00:08:12.74 bitrate=N/A speed=18.7x    frame=12030 fps=448 q=-0.0 size=N/A time=00:08:21.75 bitrate=N/A speed=18.7x    frame=12272 fps=449 q=-0.0 size=N/A time=00:08:31.84 bitrate=N/A speed=18.7x    frame=12544 fps=450 q=-0.0 size=N/A time=00:08:43.18 bitrate=N/A speed=18.8x    frame=12816 fps=452 q=-0.0 size=N/A time=00:08:54.53 bitrate=N/A speed=18.8x    frame=13099 fps=453 q=-0.0 size=N/A time=00:09:06.33 bitrate=N/A speed=18.9x    frame=13368 fps=455 q=-0.0 size=N/A time=00:09:17.55 bitrate=N/A speed=  19x    frame=13663 fps=456 q=-0.0 size=N/A time=00:09:29.86 bitrate=N/A speed=  19x    frame=13907 fps=457 q=-0.0 size=N/A time=00:09:40.03 bitrate=N/A speed=19.1x    frame=14176 fps=458 q=-0.0 size=N/A time=00:09:51.25 bitrate=N/A speed=19.1x    frame=14451 fps=459 q=-0.0 size=N/A time=00:10:02.72 bitrate=N/A speed=19.2x    frame=14692 fps=459 q=-0.0 size=N/A time=00:10:12.77 bitrate=N/A speed=19.2x    frame=14938 fps=460 q=-0.0 size=N/A time=00:10:23.03 bitrate=N/A speed=19.2x    frame=15205 fps=460 q=-0.0 size=N/A time=00:10:34.17 bitrate=N/A speed=19.2x    frame=15450 fps=461 q=-0.0 size=N/A time=00:10:44.39 bitrate=N/A speed=19.2x    frame=15708 fps=461 q=-0.0 size=N/A time=00:10:55.15 bitrate=N/A speed=19.2x    frame=15959 fps=462 q=-0.0 size=N/A time=00:11:05.62 bitrate=N/A speed=19.3x    frame=16236 fps=463 q=-0.0 size=N/A time=00:11:17.17 bitrate=N/A speed=19.3x    frame=16455 fps=462 q=-0.0 size=N/A time=00:11:26.31 bitrate=N/A speed=19.3x    frame=16690 fps=462 q=-0.0 size=N/A time=00:11:36.11 bitrate=N/A speed=19.3x    frame=16923 fps=462 q=-0.0 size=N/A time=00:11:45.83 bitrate=N/A speed=19.3x    frame=17148 fps=462 q=-0.0 size=N/A time=00:11:55.21 bitrate=N/A speed=19.3x    frame=17384 fps=462 q=-0.0 size=N/A time=00:12:05.05 bitrate=N/A speed=19.3x    frame=17658 fps=463 q=-0.0 size=N/A time=00:12:16.48 bitrate=N/A speed=19.3x    frame=17902 fps=463 q=-0.0 size=N/A time=00:12:26.66 bitrate=N/A speed=19.3x    frame=18155 fps=463 q=-0.0 size=N/A time=00:12:37.21 bitrate=N/A speed=19.3x    frame=18439 fps=464 q=-0.0 size=N/A time=00:12:49.05 bitrate=N/A speed=19.4x    frame=18698 fps=465 q=-0.0 size=N/A time=00:12:59.86 bitrate=N/A speed=19.4x    frame=18970 fps=465 q=-0.0 size=N/A time=00:13:11.20 bitrate=N/A speed=19.4x    frame=19228 fps=466 q=-0.0 size=N/A time=00:13:21.96 bitrate=N/A speed=19.4x    frame=19454 fps=466 q=-0.0 size=N/A time=00:13:31.39 bitrate=N/A speed=19.4x    frame=19719 fps=466 q=-0.0 size=N/A time=00:13:42.48 bitrate=N/A speed=19.4x    frame=20003 fps=467 q=-0.0 size=N/A time=00:13:54.29 bitrate=N/A speed=19.5x    frame=20276 fps=468 q=-0.0 size=N/A time=00:14:05.67 bitrate=N/A speed=19.5x    frame=20536 fps=468 q=-0.0 size=N/A time=00:14:16.52 bitrate=N/A speed=19.5x    frame=20829 fps=470 q=-0.0 size=N/A time=00:14:28.74 bitrate=N/A speed=19.6x    frame=21099 fps=470 q=-0.0 size=N/A time=00:14:40.00 bitrate=N/A speed=19.6x    frame=21353 fps=470 q=-0.0 size=N/A time=00:14:50.59 bitrate=N/A speed=19.6x    frame=21578 fps=470 q=-0.0 size=N/A time=00:14:59.98 bitrate=N/A speed=19.6x    frame=21764 fps=469 q=-0.0 size=N/A time=00:15:07.74 bitrate=N/A speed=19.6x    frame=22003 fps=469 q=-0.0 size=N/A time=00:15:17.70 bitrate=N/A speed=19.6x    frame=22234 fps=468 q=-0.0 size=N/A time=00:15:27.34 bitrate=N/A speed=19.5x    frame=22476 fps=469 q=-0.0 size=N/A time=00:15:37.43 bitrate=N/A speed=19.5x    frame=22712 fps=468 q=-0.0 size=N/A time=00:15:47.27 bitrate=N/A speed=19.5x    frame=22923 fps=468 q=-0.0 size=N/A time=00:15:56.08 bitrate=N/A speed=19.5x    frame=23162 fps=468 q=-0.0 size=N/A time=00:16:06.04 bitrate=N/A speed=19.5x    frame=23410 fps=468 q=-0.0 size=N/A time=00:16:16.39 bitrate=N/A speed=19.5x    frame=23647 fps=468 q=-0.0 size=N/A time=00:16:26.27 bitrate=N/A speed=19.5x    frame=23874 fps=468 q=-0.0 size=N/A time=00:16:35.74 bitrate=N/A speed=19.5x    frame=24108 fps=467 q=-0.0 size=N/A time=00:16:45.50 bitrate=N/A speed=19.5x    frame=24330 fps=467 q=-0.0 size=N/A time=00:16:54.76 bitrate=N/A speed=19.5x    frame=24550 fps=466 q=-0.0 size=N/A time=00:17:03.93 bitrate=N/A speed=19.5x    frame=24782 fps=466 q=-0.0 size=N/A time=00:17:13.61 bitrate=N/A speed=19.5x    frame=25038 fps=467 q=-0.0 size=N/A time=00:17:24.29 bitrate=N/A speed=19.5x    frame=25274 fps=467 q=-0.0 size=N/A time=00:17:34.13 bitrate=N/A speed=19.5x    frame=25496 fps=466 q=-0.0 size=N/A time=00:17:43.39 bitrate=N/A speed=19.4x    frame=25726 fps=466 q=-0.0 size=N/A time=00:17:52.98 bitrate=N/A speed=19.4x    frame=25975 fps=466 q=-0.0 size=N/A time=00:18:03.37 bitrate=N/A speed=19.4x    frame=26199 fps=466 q=-0.0 size=N/A time=00:18:12.71 bitrate=N/A speed=19.4x    frame=26441 fps=466 q=-0.0 size=N/A time=00:18:22.81 bitrate=N/A speed=19.4x    frame=26674 fps=466 q=-0.0 size=N/A time=00:18:32.52 bitrate=N/A speed=19.4x    frame=26892 fps=465 q=-0.0 size=N/A time=00:18:41.62 bitrate=N/A speed=19.4x    frame=27111 fps=465 q=-0.0 size=N/A time=00:18:50.75 bitrate=N/A speed=19.4x    frame=27354 fps=465 q=-0.0 size=N/A time=00:19:00.88 bitrate=N/A speed=19.4x    frame=27562 fps=465 q=-0.0 size=N/A time=00:19:09.56 bitrate=N/A speed=19.4x    frame=27794 fps=464 q=-0.0 size=N/A time=00:19:19.24 bitrate=N/A speed=19.4x    frame=28029 fps=464 q=-0.0 size=N/A time=00:19:29.04 bitrate=N/A speed=19.4x    frame=28228 fps=464 q=-0.0 size=N/A time=00:19:37.34 bitrate=N/A speed=19.3x    frame=28455 fps=463 q=-0.0 size=N/A time=00:19:46.81 bitrate=N/A speed=19.3x    frame=28685 fps=463 q=-0.0 size=N/A time=00:19:56.40 bitrate=N/A speed=19.3x    frame=28923 fps=463 q=-0.0 size=N/A time=00:20:06.33 bitrate=N/A speed=19.3x    frame=29162 fps=463 q=-0.0 size=N/A time=00:20:16.29 bitrate=N/A speed=19.3x    frame=29403 fps=463 q=-0.0 size=N/A time=00:20:26.35 bitrate=N/A speed=19.3x    frame=29640 fps=463 q=-0.0 size=N/A time=00:20:36.23 bitrate=N/A speed=19.3x    frame=29887 fps=463 q=-0.0 size=N/A time=00:20:46.53 bitrate=N/A speed=19.3x    frame=30160 fps=464 q=-0.0 size=N/A time=00:20:57.92 bitrate=N/A speed=19.4x    frame=30421 fps=464 q=-0.0 size=N/A time=00:21:08.80 bitrate=N/A speed=19.4x    frame=30680 fps=465 q=-0.0 size=N/A time=00:21:19.61 bitrate=N/A speed=19.4x    frame=30957 fps=465 q=-0.0 size=N/A time=00:21:31.16 bitrate=N/A speed=19.4x    frame=31239 fps=466 q=-0.0 size=N/A time=00:21:42.92 bitrate=N/A speed=19.4x    frame=31513 fps=466 q=-0.0 size=N/A time=00:21:54.35 bitrate=N/A speed=19.4x    frame=31726 fps=466 q=-0.0 size=N/A time=00:22:03.23 bitrate=N/A speed=19.4x    frame=31898 fps=465 q=-0.0 size=N/A time=00:22:10.41 bitrate=N/A speed=19.4x    frame=32088 fps=464 q=-0.0 size=N/A time=00:22:18.33 bitrate=N/A speed=19.4x    frame=32302 fps=464 q=-0.0 size=N/A time=00:22:27.26 bitrate=N/A speed=19.3x    frame=32502 fps=463 q=-0.0 size=N/A time=00:22:35.60 bitrate=N/A speed=19.3x    frame=32692 fps=463 q=-0.0 size=N/A time=00:22:43.52 bitrate=N/A speed=19.3x    frame=32878 fps=462 q=-0.0 size=N/A time=00:22:51.28 bitrate=N/A speed=19.3x    frame=33088 fps=461 q=-0.0 size=N/A time=00:23:00.04 bitrate=N/A speed=19.2x    frame=33246 fps=460 q=-0.0 size=N/A time=00:23:06.63 bitrate=N/A speed=19.2x    frame=33474 fps=460 q=-0.0 size=N/A time=00:23:16.14 bitrate=N/A speed=19.2x    frame=33674 fps=460 q=-0.0 size=N/A time=00:23:24.48 bitrate=N/A speed=19.2x    frame=33854 fps=459 q=-0.0 size=N/A time=00:23:31.99 bitrate=N/A speed=19.1x    frame=34080 fps=459 q=-0.0 size=N/A time=00:23:41.42 bitrate=N/A speed=19.1x    [Parsed_psnr_10 @ 00000216deab9440] PSNR y:47.603690 u:50.290209 v:50.266341 average:48.326247 min:40.138174 max:inf
[out#0/null @ 00000216de5b50c0] video:14697KiB audio:267812KiB subtitle:0KiB other streams:0KiB global headers:0KiB muxing overhead: unknown
frame=34203 fps=459 q=-0.0 Lsize=N/A time=00:23:46.55 bitrate=N/A speed=19.1x    
